<svg xmlns="http://www.w3.org/2000/svg" viewBox="0 0 1031 1024" width="128" height="128" fill="currentColor">
    <path d="M748.297 151.878v265.264l-232.697 132.516-232.697-132.593V151.878L515.62 19.362z" fill="#9AB3FF"></path>
    <path d="M515.62 0a19.362 19.362 0 0 1 9.584 2.536l232.697 132.516a19.362 19.362 0 0 1 9.778 16.826v265.264a19.362 19.362 0 0 1-9.778 16.826l-232.697 132.516a19.362 19.362 0 0 1-19.169 0L273.339 433.717a19.362 19.362 0 0 1-9.681-16.826V151.878a19.362 19.362 0 0 1 9.778-16.826L506.036 2.536A19.362 19.362 0 0 1 515.62 0zm213.335 163.128L515.62 41.648 302.285 163.128v242.591l213.335 121.557 213.335-121.479z" fill="#262B3A"></path>
    <path d="M484.737 607.01v265.109l-232.697 132.516L19.363 872.12V607.01l232.697-132.593z" fill="#396AFC"></path>
    <path d="M252.059 455.054a19.362 19.362 0 0 1 9.681 2.536l232.697 132.593a19.362 19.362 0 0 1 9.681 16.826v265.109a19.362 19.362 0 0 1-9.778 16.826l-232.697 132.516a19.362 19.362 0 0 1-19.169 0L9.778 888.945a19.362 19.362 0 0 1-9.778-16.826V607.01a19.362 19.362 0 0 1 9.778-16.826l232.697-132.593a19.362 19.362 0 0 1 9.681-2.536zm213.335 163.205l-213.335-121.557-213.335 121.557v242.591l213.335 121.479 213.335-121.479z" fill="#262B3A"></path>
    <path d="M1011.897 607.01v265.109l-232.716 132.497-232.658-132.497V607.01l232.658-132.593z" fill="#FFFFFF"></path>
    <path d="M779.18 455.054a19.362 19.362 0 0 1 9.681 2.536l232.697 132.593a19.362 19.362 0 0 1 9.681 16.826v265.109a19.362 19.362 0 0 1-9.778 16.826l-232.6 132.497a19.362 19.362 0 0 1-19.169 0L536.996 888.926a19.362 19.362 0 0 1-9.778-16.826V607.01a19.362 19.362 0 0 1 9.681-16.826l232.697-132.593a19.362 19.362 0 0 1 9.584-2.536zm213.335 163.205l-213.335-121.557-213.335 121.557v242.591l213.335 121.479 213.335-121.479z" fill="#262B3A"></path>
</svg>